<svg width="24" height="24" viewBox="0 0 24 24" fill="none" xmlns="http://www.w3.org/2000/svg">
<path d="M15.3468 13.8386C17.4751 14.7225 19.0524 16.1146 20.0712 18.0961C20.6976 19.3041 21.0146 20.5931 20.9995 21.9779C20.4787 21.9779 19.9957 21.9779 19.4599 21.9779C19.3618 19.4367 18.275 17.4037 16.1091 15.9673C14.6751 15.0097 13.0601 14.6488 11.3394 14.7888C7.72439 15.0834 4.59995 18.0961 4.55467 22C4.31317 22 4.06412 22 3.81507 22C3.56602 22 3.31697 22 3 22C3.19622 18.1845 5.05277 15.518 8.51682 13.8828C4.29808 11.1205 4.83391 6.38424 7.06781 4.04925C9.62623 1.36805 13.9733 1.30912 16.6147 3.92403C18.9769 6.27376 19.4825 11.0542 15.3468 13.8386ZM6.92442 8.37304C6.91687 10.9953 9.06775 13.2346 11.9356 13.2493C14.66 13.2566 16.8788 11.0248 16.8713 8.34358C16.8638 5.68448 14.6148 3.50417 11.8828 3.51153C9.15077 3.5189 6.91687 5.69921 6.92442 8.37304Z" fill="#B1AAAA"/>
</svg>
